<?xml version="1.0" standalone="no"?>
<!DOCTYPE svg PUBLIC "-//W3C//DTD SVG 20010904//EN"
 "http://www.w3.org/TR/2001/REC-SVG-20010904/DTD/svg10.dtd">
<svg version="1.0" xmlns="http://www.w3.org/2000/svg"
 width="1997.000000pt" height="1997.000000pt" viewBox="0 0 1997.000000 1997.000000"
 preserveAspectRatio="xMidYMid meet">
<metadata>
Created by potrace 1.11, written by Peter Selinger 2001-2013
</metadata>
<g transform="translate(0.000000,1997.000000) scale(0.100000,-0.100000)"
fill="#000000" stroke="none">
<path d="M8577 15254 c-1 -1 -36 -4 -77 -7 -195 -16 -345 -50 -532 -123 -96
-37 -288 -139 -308 -163 -3 -3 -23 -19 -45 -36 -38 -28 -142 -130 -175 -171
-95 -118 -165 -268 -196 -414 -16 -78 -18 -243 -2 -295 4 -16 11 -43 14 -60 8
-49 80 -186 129 -247 81 -103 213 -191 358 -238 96 -32 122 -35 277 -34 153 0
216 12 340 64 160 68 310 203 378 342 48 97 70 194 53 227 -8 14 -21 21 -41
21 -31 0 -43 -12 -48 -47 -6 -46 -33 -107 -76 -172 -95 -143 -263 -260 -446
-310 -106 -30 -275 -22 -390 16 -161 54 -243 129 -296 269 -80 213 18 499 250
729 98 96 181 158 306 227 81 44 329 139 365 139 2 0 19 5 37 10 18 5 48 12
67 15 18 3 43 8 55 10 115 23 435 23 671 -1 218 -22 246 -25 405 -50 183 -28
551 -110 723 -161 15 -5 14 -10 -11 -47 -47 -69 -80 -132 -377 -712 -183 -358
-256 -496 -323 -615 -211 -375 -405 -670 -555 -845 -210 -244 -512 -465 -797
-582 -174 -72 -429 -141 -575 -158 -33 -3 -73 -8 -90 -11 -93 -13 -371 -19
-445 -9 -19 2 -57 7 -84 10 -393 45 -827 284 -1014 557 -65 96 -132 245 -147
326 -2 15 -9 52 -15 82 -14 73 -11 242 6 338 44 239 146 385 377 538 108 71
117 79 117 106 0 50 -72 62 -164 27 -128 -47 -289 -190 -363 -320 -46 -82
-103 -259 -126 -389 -38 -228 -10 -465 80 -658 103 -220 316 -421 580 -547
203 -97 477 -179 674 -200 30 -4 60 -8 68 -11 66 -22 528 -21 691 1 14 1 49 6
79 10 30 4 61 8 70 10 9 1 36 6 61 10 199 31 502 130 695 228 384 193 674 513
910 1002 111 230 142 303 340 800 91 231 187 461 211 512 24 51 44 95 44 97 0
8 115 206 173 299 50 80 66 97 82 93 11 -2 79 -24 150 -49 110 -39 282 -88
351 -101 11 -2 37 -9 59 -15 22 -5 56 -13 75 -16 19 -3 64 -12 100 -20 36 -8
81 -16 100 -19 19 -3 78 -12 130 -20 157 -24 190 -27 315 -31 186 -5 310 30
384 110 48 52 60 101 40 160 -11 32 -19 41 -41 43 -30 4 -39 -9 -54 -82 -8
-34 -16 -44 -54 -63 -25 -13 -70 -28 -100 -32 -58 -10 -287 -7 -355 4 -316 50
-292 46 -500 91 -172 37 -522 128 -533 138 -8 8 97 106 158 147 38 26 51 29
90 24 71 -9 103 28 75 85 -18 36 -54 52 -102 47 -74 -9 -153 -60 -282 -183
l-89 -84 -118 35 c-66 20 -159 49 -209 65 -362 116 -860 238 -1043 256 -31 3
-58 7 -62 9 -14 8 -443 27 -453 19z"/>
<path d="M10863 14429 c-39 -11 -112 -91 -162 -178 -129 -223 -704 -1356 -854
-1681 -26 -58 -252 -521 -269 -554 -9 -16 -8 -18 8 -11 11 4 44 9 74 11 30 3
77 6 105 8 59 5 64 9 141 154 198 371 425 653 661 820 44 31 113 54 142 47 21
-5 23 -10 19 -54 -4 -36 -20 -73 -68 -152 -96 -156 -174 -316 -194 -394 -27
-105 -27 -106 -27 -171 0 -129 59 -221 160 -251 75 -21 161 -13 231 22 72 37
201 168 274 280 33 50 62 94 66 98 4 4 7 -15 8 -43 4 -174 94 -301 247 -349
106 -33 268 -22 374 26 126 57 269 210 369 394 44 82 162 339 162 354 0 21
-28 25 -49 7 -11 -9 -52 -82 -92 -162 -39 -80 -96 -183 -127 -230 -62 -94
-184 -222 -253 -266 -97 -61 -240 -82 -309 -45 -24 12 -44 36 -65 76 -28 55
-30 66 -30 169 0 74 6 135 18 181 26 102 18 94 117 110 63 10 193 52 270 88
213 99 397 310 417 479 11 96 -20 159 -100 200 -172 87 -459 -47 -668 -312
-33 -41 -64 -80 -69 -87 -6 -7 -10 -14 -10 -17 0 -2 -17 -33 -39 -67 -21 -35
-54 -100 -74 -145 -137 -313 -350 -625 -463 -679 -73 -35 -133 0 -138 81 -2
47 16 150 40 219 49 146 209 482 370 777 42 76 74 142 70 145 -23 23 -153 -14
-296 -85 -81 -40 -334 -199 -350 -220 -3 -4 -27 -25 -55 -47 -70 -56 -204
-193 -275 -282 -33 -41 -60 -71 -60 -68 0 9 165 341 248 500 321 614 607 1112
719 1251 l32 40 -82 12 c-95 14 -119 14 -164 1z m1252 -1111 c37 -89 -37 -260
-171 -394 -69 -70 -96 -89 -185 -133 -107 -51 -247 -95 -262 -81 -7 6 30 83
86 175 61 101 177 246 262 329 65 63 102 91 159 120 58 29 94 24 111 -16z"/>
<path d="M5548 10445 c-2 -1 -61 -5 -133 -8 -71 -4 -141 -9 -155 -11 -14 -2
-43 -7 -65 -10 -187 -24 -430 -99 -610 -189 -70 -34 -231 -131 -245 -147 -3
-3 -23 -18 -45 -35 -66 -49 -229 -213 -284 -284 -261 -344 -394 -771 -395
-1266 0 -126 11 -303 23 -375 44 -252 92 -409 181 -595 329 -684 1054 -1046
1965 -981 145 10 176 14 315 42 355 72 677 234 924 465 l39 37 -24 30 c-13 17
-28 31 -32 31 -5 1 -34 -22 -65 -50 -177 -157 -452 -291 -707 -343 -154 -31
-247 -40 -420 -41 -314 0 -530 43 -750 150 -145 71 -210 119 -345 255 -256
257 -405 627 -448 1115 -9 107 -9 480 1 580 37 386 141 715 298 946 218 321
534 506 934 546 129 13 333 7 465 -13 19 -3 82 -16 139 -30 303 -75 528 -221
687 -450 56 -79 146 -295 153 -366 1 -5 24 -8 51 -8 l50 0 0 379 0 379 -31 26
-30 26 -47 -27 c-26 -15 -79 -46 -118 -68 l-70 -42 -35 24 c-243 169 -625 282
-1009 299 -69 3 -133 7 -142 8 -9 2 -18 3 -20 1z"/>
<path d="M10 10385 c0 -17 7 -26 23 -29 12 -3 51 -12 87 -20 36 -8 81 -18 100
-22 19 -4 37 -8 40 -9 3 -1 23 -5 45 -10 22 -5 43 -10 48 -11 4 -1 12 -2 17
-3 7 -1 10 -605 10 -1791 l0 -1790 -22 -5 c-304 -70 -343 -81 -343 -105 l0
-22 1550 0 c853 1 1556 1 1563 1 9 1 12 75 12 336 l0 335 -45 0 -45 0 -59
-122 c-32 -68 -91 -190 -130 -271 -39 -81 -71 -152 -71 -158 0 -5 -338 -9
-895 -9 -845 0 -895 1 -896 18 -1 24 -1 1708 0 1757 l1 40 695 0 696 0 20 -69
c11 -38 22 -76 24 -85 18 -80 77 -266 86 -272 7 -4 24 -6 38 -4 14 2 29 4 32
4 3 1 6 218 5 484 l-1 482 -41 3 -41 3 -60 -213 -60 -213 -696 -3 c-659 -2
-697 -1 -698 15 0 10 -1 389 -1 843 l-1 825 864 3 864 2 14 -32 c8 -18 49
-105 91 -193 42 -88 96 -201 119 -251 l42 -90 42 0 c23 1 44 4 47 7 3 4 5 155
4 336 l0 328 -1537 3 -1537 2 0 -25z"/>
<path d="M7375 10383 c0 -28 8 -32 190 -82 44 -12 103 -29 130 -37 l51 -14 -2
-1768 c0 -972 -2 -1772 -2 -1777 -1 -6 -10 -11 -19 -12 -10 -1 -45 -8 -78 -16
-33 -8 -106 -25 -162 -38 -99 -23 -127 -39 -104 -62 7 -7 2594 -14 2897 -8
l30 1 0 333 -1 332 -45 0 -45 0 -42 -85 c-23 -47 -83 -170 -133 -275 l-90
-190 -793 -3 -793 -2 0 1785 0 1786 51 14 c168 48 225 64 270 75 45 11 50 15
50 41 l1 29 -681 0 -681 0 1 -27z"/>
<path d="M12620 10386 c-5 -14 -22 -53 -38 -88 -16 -35 -64 -139 -107 -233
-42 -93 -88 -195 -102 -225 -14 -30 -59 -129 -100 -220 -41 -91 -85 -187 -98
-215 -51 -111 -90 -197 -152 -335 -36 -80 -81 -179 -100 -220 -19 -41 -41 -88
-48 -105 -7 -16 -34 -74 -59 -129 -25 -54 -46 -100 -46 -101 0 -2 -20 -45 -43
-97 -24 -51 -61 -131 -82 -178 -21 -47 -57 -127 -81 -179 -24 -51 -44 -95 -44
-96 0 -2 -22 -51 -50 -110 -27 -59 -50 -108 -50 -110 0 -2 -17 -41 -39 -87
-21 -45 -94 -204 -161 -353 -67 -148 -137 -301 -155 -340 -17 -38 -47 -104
-65 -145 -18 -41 -38 -80 -44 -86 -6 -6 -76 -28 -156 -48 -223 -58 -225 -58
-228 -89 -3 -22 1 -27 20 -28 32 0 926 0 963 0 25 1 31 6 33 25 1 16 -5 27
-16 30 -21 7 -275 61 -394 84 -49 9 -88 20 -88 25 0 4 8 27 19 50 10 23 60
134 111 247 51 113 102 228 115 255 118 259 220 487 232 518 l15 37 866 -2
867 -3 43 -100 c24 -55 111 -257 193 -450 83 -192 157 -364 165 -382 47 -104
72 -169 66 -174 -4 -4 -68 -24 -142 -44 -74 -20 -139 -38 -145 -40 -5 -1 -25
-6 -42 -10 -18 -4 -33 -13 -34 -19 0 -6 -2 -19 -4 -28 -2 -14 4 -18 28 -19 18
0 328 -1 689 -2 l658 -2 0 27 c0 32 -2 33 -71 52 -30 8 -107 30 -173 49 l-118
34 -55 124 c-30 68 -160 367 -289 664 -130 297 -244 558 -254 580 -10 22 -37
85 -60 140 -24 55 -53 123 -65 150 -12 28 -46 104 -75 170 -29 66 -60 138 -70
160 -10 22 -56 128 -103 235 -47 107 -156 357 -242 555 -86 198 -164 377 -174
398 -9 21 -62 143 -117 270 l-101 232 -97 3 c-94 3 -96 2 -106 -22z m-109
-671 c10 -22 104 -242 209 -490 105 -247 197 -463 204 -480 34 -74 325 -762
328 -774 2 -11 -125 -13 -767 -13 -423 0 -787 1 -807 1 l-37 1 18 43 c10 23
33 72 50 110 17 37 31 69 31 72 0 2 18 41 39 87 21 46 80 175 131 288 51 113
103 230 117 260 24 53 186 412 233 515 12 28 34 75 47 105 14 30 42 93 63 140
102 228 102 227 113 200 6 -14 19 -43 28 -65z"/>
<path d="M14857 10403 c-2 -5 -3 -17 -3 -27 1 -20 22 -28 211 -81 55 -15 114
-31 131 -36 l30 -9 0 -1760 0 -1761 -55 -16 c-31 -9 -60 -18 -66 -19 -5 -2
-64 -18 -130 -36 -113 -33 -119 -36 -120 -61 -2 -24 2 -27 29 -28 34 0 1249 0
1282 0 16 1 21 7 20 28 -1 27 -24 37 -206 88 -8 2 -44 13 -80 23 l-65 19 -2
1761 -2 1761 32 10 c18 5 88 26 157 46 167 49 168 49 168 79 l0 26 -664 0
c-364 0 -665 -3 -667 -7z"/>
<path d="M16330 10386 c0 -18 6 -27 23 -30 12 -3 51 -12 87 -20 36 -8 81 -18
100 -22 19 -4 37 -8 40 -9 3 -1 23 -5 45 -10 22 -5 43 -10 48 -11 4 -1 12 -2
17 -3 7 -1 9 -596 8 -1778 l-3 -1778 -182 -50 c-181 -49 -183 -50 -183 -77 0
-20 5 -28 18 -29 26 0 1230 0 1290 0 52 1 53 2 50 28 -3 27 -9 29 -180 78 -97
27 -180 53 -183 57 -4 3 -7 366 -7 805 l-1 798 331 3 332 2 25 -40 c14 -22 25
-42 25 -45 0 -3 9 -18 19 -33 15 -21 426 -721 519 -883 58 -100 429 -730 442
-749 l15 -22 410 0 c226 0 424 1 441 1 27 1 31 4 30 28 -1 30 11 25 -192 78
l-140 37 -72 121 c-40 67 -77 129 -82 137 -22 35 -274 458 -290 485 -87 153
-374 624 -412 677 -62 85 -163 178 -227 209 -28 13 -48 25 -46 27 2 2 21 6 42
9 21 2 54 8 73 13 19 5 49 12 66 15 46 7 230 73 288 102 135 67 291 195 371
303 81 108 144 262 163 395 4 28 6 113 6 190 -1 148 -20 246 -65 345 -12 24
-25 54 -30 65 -33 72 -134 201 -211 267 -116 99 -286 191 -448 242 -138 43
-141 44 -240 60 -52 8 -111 18 -130 22 -19 4 -477 9 -1017 11 l-983 4 0 -25z
m1825 -100 c211 -50 296 -92 414 -201 132 -122 210 -281 247 -500 13 -81 13
-363 0 -435 -69 -363 -268 -585 -601 -672 -73 -19 -114 -21 -487 -25 -325 -3
-408 -1 -409 9 0 17 0 1832 0 1836 2 7 807 -5 836 -12z"/>
<path d="M9958 5535 c-1 -2 -20 -6 -42 -9 -211 -33 -310 -310 -183 -510 58
-91 172 -141 286 -124 102 15 174 70 220 167 22 48 26 69 26 151 0 82 -4 103
-26 150 -46 96 -120 154 -211 166 -24 3 -48 7 -55 9 -6 2 -13 2 -15 0z m113
-96 c116 -59 148 -284 58 -410 -62 -87 -222 -96 -296 -17 -53 56 -79 182 -59
278 19 87 85 158 154 167 20 3 38 6 40 8 8 7 69 -8 103 -26z"/>
<path d="M10800 5520 c-19 -19 -20 -32 -20 -313 0 -310 1 -317 47 -317 33 0
40 28 38 155 -1 61 0 115 2 122 3 8 54 11 179 11 169 -1 174 -2 175 -22 1 -12
1 -68 1 -126 0 -117 7 -140 43 -140 13 0 28 8 33 18 13 23 13 581 1 604 -12
23 -56 23 -67 1 -6 -10 -10 -65 -10 -123 0 -58 0 -114 -1 -125 -1 -20 -7 -21
-176 -21 -112 0 -175 4 -176 11 -1 5 -3 57 -4 115 -3 150 -3 148 -25 160 -15
8 -24 6 -40 -10z"/>
<path d="M16898 5534 c-2 -1 -25 -4 -51 -5 -55 -3 -128 -37 -174 -81 -17 -17
-44 -58 -59 -92 -23 -51 -28 -75 -28 -146 0 -72 4 -94 27 -145 57 -123 149
-180 282 -176 115 3 219 57 195 101 -14 26 -32 25 -98 -6 -138 -65 -263 -9
-307 138 -26 88 -1 222 53 281 31 34 92 59 148 60 44 0 64 -6 106 -32 56 -35
80 -33 86 7 4 28 -50 67 -120 85 -31 8 -58 13 -60 11z"/>
<path d="M44 5513 c-11 -12 -14 -66 -14 -307 0 -214 3 -295 12 -304 16 -16 55
-15 65 1 4 6 8 134 8 282 l0 270 174 3 c100 1 177 -1 180 -7 3 -5 5 -125 5
-268 -1 -142 3 -266 8 -275 11 -23 55 -23 67 0 11 21 11 585 0 604 -13 20
-484 21 -505 1z"/>
<path d="M1104 5513 c-11 -12 -14 -67 -14 -301 0 -163 4 -293 10 -302 7 -12
37 -15 147 -17 144 -1 173 5 173 37 0 30 -27 37 -133 36 -53 -1 -101 1 -105 4
-9 7 -9 193 0 200 4 3 47 5 95 4 100 -1 123 6 123 41 0 28 4 27 -115 29 -50 1
-95 5 -100 8 -8 5 -12 135 -6 193 1 6 42 10 103 9 57 0 111 3 121 8 20 10 23
41 5 55 -7 6 -75 10 -151 10 -106 0 -142 -4 -153 -14z"/>
<path d="M1946 5514 c-3 -9 -6 -145 -6 -304 0 -159 3 -295 6 -304 9 -22 63
-21 71 2 4 9 7 76 7 149 0 154 -15 153 137 12 189 -176 193 -178 221 -179 60
0 47 47 -30 114 -56 48 -95 83 -199 178 l-51 47 147 124 c141 119 166 150 137
169 -24 17 -48 5 -124 -59 -43 -38 -103 -88 -132 -113 -29 -25 -65 -55 -78
-67 -14 -13 -26 -23 -27 -23 -1 0 -1 52 -1 115 1 63 -2 124 -6 135 -9 25 -63
28 -72 4z"/>
<path d="M3108 5513 c-15 -16 -219 -511 -238 -574 -9 -31 4 -49 36 -49 27 0
37 12 62 80 l20 55 160 3 160 2 17 -52 c10 -29 25 -61 33 -71 20 -23 66 -19
70 6 4 18 -207 553 -234 595 -18 27 -64 30 -86 5z m108 -246 l61 -162 -125 -3
c-68 -1 -126 -1 -129 1 -5 6 119 327 126 327 3 0 33 -73 67 -163z"/>
<path d="M3935 5517 c-13 -11 -16 -42 -16 -227 -1 -412 -2 -385 25 -398 18 -8
28 -8 41 2 15 11 18 30 18 123 l1 111 101 4 c117 4 167 26 212 91 24 34 28 50
28 107 0 57 -4 73 -29 108 -46 67 -97 86 -243 88 -80 2 -127 -2 -138 -9z m265
-77 c46 -23 71 -71 65 -122 -10 -80 -57 -116 -155 -118 -119 -3 -107 -18 -105
128 1 70 3 128 4 130 0 1 35 2 76 2 56 0 86 -5 115 -20z"/>
<path d="M4852 5521 c-11 -7 -14 -69 -14 -311 0 -315 1 -320 42 -320 38 0 42
14 44 151 l1 134 175 0 175 0 3 -129 c1 -75 7 -135 14 -143 13 -17 54 -17 65
0 10 17 12 588 1 610 -10 20 -51 23 -66 4 -6 -7 -11 -65 -11 -136 -1 -67 -3
-126 -5 -130 -3 -4 -82 -7 -178 -6 l-173 0 -1 115 c-1 143 -7 170 -37 170 -12
0 -28 -4 -35 -9z"/>
<path d="M6003 5511 c-86 -29 -125 -82 -124 -168 1 -93 72 -162 171 -166 22
-1 40 -4 40 -7 0 -2 -49 -54 -109 -115 -60 -60 -110 -117 -111 -125 -5 -32 1
-40 28 -40 23 0 53 25 165 139 l137 140 0 -128 c0 -85 4 -131 12 -139 16 -16
55 -15 65 1 4 6 8 144 8 305 0 243 -2 295 -14 305 -23 19 -210 18 -268 -2z
m197 -164 l0 -114 -67 2 c-108 3 -111 4 -139 28 -33 29 -43 91 -20 134 22 44
68 63 154 63 l72 0 0 -113z"/>
<path d="M8742 5518 c-9 -9 -12 -87 -12 -314 0 -266 2 -303 16 -308 25 -10 52
-7 60 6 5 7 9 73 10 148 2 152 2 149 12 135 4 -5 57 -55 117 -110 61 -55 128
-117 150 -138 42 -39 74 -53 100 -43 22 8 18 49 -7 70 -97 81 -288 257 -288
266 0 4 48 47 108 96 166 137 185 157 177 182 -7 25 -40 29 -66 9 -17 -13
-115 -96 -133 -112 -10 -9 -113 -96 -157 -132 -13 -11 -15 -1 -14 95 2 133 -4
156 -36 160 -13 2 -30 -3 -37 -10z"/>
<path d="M11980 5514 c-7 -7 -13 -68 -15 -141 -5 -184 -20 -271 -67 -370 -18
-38 -24 -43 -54 -43 -44 0 -51 -16 -49 -121 2 -96 6 -109 39 -109 35 0 45 19
48 95 l3 68 225 0 c124 -1 230 -2 237 -2 7 -1 10 -21 9 -60 -3 -76 7 -101 37
-101 40 0 47 18 47 121 0 105 -2 109 -61 109 l-29 0 0 274 c0 209 -3 277 -12
283 -7 4 -88 9 -180 9 -128 1 -170 -2 -178 -12z m288 -304 l0 -250 -149 0
-148 0 19 43 c40 90 59 198 65 371 2 39 3 74 4 79 1 4 48 7 105 7 l104 0 0
-250z"/>
<path d="M12942 5513 c-14 -27 -10 -599 4 -613 32 -32 57 -7 239 237 99 133
183 242 186 243 3 0 5 -101 4 -225 0 -123 3 -234 7 -245 8 -22 47 -27 66 -8 9
9 12 90 12 304 0 161 -3 299 -6 308 -4 9 -18 16 -34 16 -25 0 -48 -27 -211
-245 -100 -135 -184 -243 -187 -241 -2 3 -4 105 -4 228 0 123 -4 231 -9 241
-6 9 -21 17 -34 17 -13 0 -28 -8 -33 -17z"/>
<path d="M13956 5518 c-19 -11 -21 -44 -3 -55 6 -4 44 -8 82 -8 l70 -1 3 -275
2 -276 24 -11 c18 -8 28 -7 41 2 16 11 18 39 19 287 l1 274 70 0 c77 1 95 7
95 35 0 10 -6 22 -12 27 -18 11 -372 12 -392 1z"/>
<path d="M14859 5519 c-11 -7 -14 -66 -16 -301 -1 -163 2 -300 7 -308 7 -12
38 -15 147 -16 144 -2 173 4 173 36 0 29 -16 34 -125 35 -56 1 -106 4 -111 7
-10 7 -11 178 -1 194 3 5 47 9 99 8 100 -1 118 5 118 42 0 27 3 26 -122 28
-48 1 -90 5 -94 9 -11 11 -10 196 1 200 6 2 53 3 105 1 52 -1 103 3 113 8 20
10 23 43 5 55 -17 11 -282 13 -299 2z"/>
<path d="M15707 5518 c-15 -8 -17 -38 -17 -306 0 -316 1 -322 47 -322 32 0 36
17 37 134 l1 101 100 5 c108 6 151 21 194 69 89 98 56 255 -65 308 -44 19
-268 28 -297 11z m250 -70 c55 -25 83 -70 78 -128 -8 -96 -62 -125 -226 -121
l-36 1 0 130 1 130 77 0 c43 0 91 -6 106 -12z"/>
<path d="M17605 5508 c-9 -27 -9 -569 0 -597 7 -23 58 -30 71 -10 4 7 7 74 7
150 0 148 -1 145 43 104 91 -84 209 -192 218 -200 76 -69 86 -75 111 -63 27
12 33 39 11 60 -7 7 -53 49 -102 93 -48 44 -114 104 -146 132 l-57 52 144 121
c79 66 145 126 148 133 8 25 -6 47 -29 47 -19 0 -172 -117 -245 -189 -9 -9
-27 -25 -40 -35 -13 -10 -31 -25 -39 -32 -14 -12 -16 0 -17 113 -1 133 -4 143
-50 143 -13 0 -24 -8 -28 -22z"/>
<path d="M18767 5512 c-9 -10 -68 -146 -131 -303 -121 -302 -126 -324 -68
-317 22 3 31 13 54 68 l27 65 158 3 158 2 24 -62 c26 -68 34 -78 69 -78 46 0
43 19 -53 255 -31 77 -60 149 -65 160 -5 11 -25 61 -45 110 -20 50 -41 96 -47
103 -15 18 -62 15 -81 -6z m107 -244 l63 -163 -125 -3 c-68 -1 -127 -1 -129 2
-4 3 40 128 72 201 7 17 21 54 31 82 10 29 20 51 22 49 2 -3 32 -78 66 -168z"/>
<path d="M19702 5520 c-47 -11 -109 -55 -128 -91 -22 -43 -21 -116 1 -162 23
-49 88 -88 150 -90 48 -1 55 -8 28 -29 -10 -8 -62 -59 -116 -115 -88 -91 -97
-104 -87 -122 23 -44 52 -27 188 114 72 74 134 135 137 135 3 0 5 -55 5 -123
0 -82 4 -127 12 -135 16 -16 55 -15 65 0 11 20 10 578 -2 602 -10 19 -20 21
-115 22 -58 0 -120 -3 -138 -6z m178 -173 l0 -113 -91 2 c-84 1 -93 4 -117 28
-23 22 -27 35 -27 82 0 50 3 58 30 80 35 28 49 31 138 33 l67 1 0 -113z"/>
<path d="M7460 5338 c-95 -65 -47 -218 67 -218 95 0 155 107 104 184 -39 59
-112 73 -171 34z"/>
</g>
</svg>
