<svg width="24" height="24" viewBox="0 0 24 24" fill="none"
     xmlns="http://www.w3.org/2000/svg">
    <g>
        <path
                d="M9.14935 24C7.40232 24 5.75466 23.4427 4.3845 22.388C4.12857 22.1911 3.88247 21.9759 3.65278 21.7491C2.05341 20.1684 1.24857 18.0633 1.38685 15.8212C1.49138 14.1267 2.17388 12.4931 3.30966 11.2214C4.81388 9.53719 6.88763 8.60953 9.14982 8.60953C9.53841 8.60953 9.93075 8.63859 10.317 8.69578L10.917 8.78484V14.1094L9.9931 13.8042C9.72404 13.7152 9.44419 13.6702 9.16107 13.6702C8.44575 13.6702 7.77591 13.9505 7.27482 14.4591C6.77607 14.9653 6.50747 15.6347 6.51779 16.3448C6.53138 17.2603 7.01372 18.09 7.80779 18.5653C8.17341 18.7838 8.58966 18.9117 9.01247 18.9352C9.34622 18.9534 9.67575 18.9098 9.99263 18.8053C11.0759 18.4477 11.8039 17.4427 11.8039 16.305L11.8086 10.7831V0H16.8973L16.9034 0.696562C16.9062 1.01203 16.9386 1.3275 16.9995 1.63313C17.2386 2.835 17.9126 3.90609 18.8975 4.64859C19.7717 5.30813 20.8151 5.65641 21.9139 5.65641C21.9397 5.65641 21.9397 5.65641 22.1745 5.67281L22.8284 5.71875V10.0312V10.7344L22.594 10.7339H22.1267C22.1229 10.7339 22.1192 10.7339 22.115 10.7339H21.8904C21.8895 10.7339 21.8881 10.7339 21.8867 10.7339C20.5315 10.7339 19.2617 10.4756 18.0031 9.94453C17.6281 9.78609 17.2629 9.60516 16.9104 9.40313L16.9264 16.3317C16.9179 18.3811 16.1079 20.3034 14.6459 21.7486C13.4595 22.9209 11.9623 23.67 10.3161 23.9137C9.93216 23.9709 9.53982 24 9.14935 24ZM9.14935 10.0158C7.29357 10.0158 5.592 10.7766 4.35825 12.158C3.432 13.1953 2.87513 14.527 2.78982 15.9075C2.67732 17.738 3.3345 19.4573 4.64091 20.7483C4.82982 20.9348 5.03185 21.1116 5.24185 21.2733C6.36404 22.1372 7.71544 22.5938 9.14935 22.5938C9.47091 22.5938 9.79388 22.5698 10.1103 22.523C11.4589 22.3233 12.6856 21.7097 13.6578 20.7488C14.8522 19.5684 15.5136 17.9995 15.5206 16.3308L15.4986 6.65625L16.6343 7.53234C17.2208 7.98469 17.8658 8.36063 18.5506 8.64984C19.4867 9.045 20.4303 9.26437 21.4217 9.31641V7.04531C20.1964 6.95344 19.039 6.51797 18.0504 5.77219C16.7895 4.82156 15.9265 3.44906 15.62 1.90828C15.5872 1.74281 15.5604 1.57547 15.5408 1.40672H13.2143V10.7836L13.2097 16.3055C13.2097 18.0506 12.094 19.5919 10.4333 20.1403C9.94904 20.3002 9.44513 20.3667 8.93513 20.3391C8.28544 20.3034 7.64607 20.107 7.08544 19.7719C5.86997 19.0448 5.13169 17.7712 5.11107 16.3655C5.09513 15.2761 5.50716 14.2486 6.27216 13.4719C7.0395 12.6928 8.06513 12.2639 9.16013 12.2639C9.27732 12.2639 9.39357 12.2691 9.50982 12.2789V10.0256C9.38982 10.0191 9.26935 10.0158 9.14935 10.0158Z"
                fill="white"/>
    </g>
</svg>